<?xml version="1.0" encoding="UTF-8" standalone="no"?>
<svg viewBox="0 0 903 369" version="1.1" xmlns="http://www.w3.org/2000/svg" xmlns:xlink="http://www.w3.org/1999/xlink" xmlns:sketch="http://www.bohemiancoding.com/sketch/ns">
    <!-- Generator: Sketch 3.3 (11970) - http://www.bohemiancoding.com/sketch -->
    <title>PUFF! Logo</title>
    <desc>Created with Sketch.</desc>
    <defs></defs>
    <g stroke-width="1" fill="none" fill-rule="evenodd" sketch:type="MSPage">
        <g transform="translate(-76.000000, -80.000000)" fill="#000000">
            <g transform="translate(77.000000, 80.000000)">
                <path d="M17.1510074,0 C2.79681036,0 2.3746281,7.1770985 2.3746281,14.7763793 L2.3746281,280.751206 C2.3746281,295.105403 9.55172659,295.527585 17.1510074,295.527585 L50.081224,295.527585 C57.6805047,295.527585 64.8576032,295.105403 64.8576032,280.751206 L64.8576032,182.804921 C64.8576032,179.849645 67.3906968,176.472187 71.1903372,176.472187 L98.2100021,176.472187 C110.453288,176.472187 199.955928,176.472187 199.955928,90.3470046 C199.955928,59.5276993 190.245736,0 93.9881795,0 L17.1510074,0 Z M69.5016081,121.588492 C66.5463323,121.588492 64.8576032,119.477581 64.8576032,117.36667 L64.8576032,59.5276993 C64.8576032,55.7280589 67.3906968,54.0393298 70.3459727,54.0393298 L93.5659972,54.0393298 C123.118756,54.0393298 132.406766,70.9266204 132.406766,87.3917287 C132.406766,108.07866 115.097293,121.588492 93.9881795,121.588492 L69.5016081,121.588492 Z M229.508686,201.803122 C229.508686,234.733339 237.107967,298.905043 321.54442,298.905043 C405.980873,298.905043 413.580154,234.733339 413.580154,201.803122 L413.580154,14.7763793 C413.580154,7.1770985 413.157971,0 398.803774,0 L365.873558,0 C351.519361,0 351.097179,7.1770985 351.097179,14.7763793 L351.097179,201.38094 C351.097179,211.935497 351.941543,241.488255 321.54442,241.488255 C291.147297,241.488255 291.991662,211.935497 291.991662,201.38094 L291.991662,14.7763793 C291.991662,7.1770985 291.569479,0 277.215282,0 L244.285066,0 C229.930869,0 229.508686,7.1770985 229.508686,14.7763793 L229.508686,201.803122 Z M451.576557,280.751206 C451.576557,295.105403 458.753656,295.527585 466.352937,295.527585 L499.283153,295.527585 C506.882434,295.527585 514.059533,295.105403 514.059533,280.751206 L514.059533,178.160916 C514.059533,174.783457 513.63735,170.983817 519.547902,170.983817 L586.674882,170.983817 C595.118527,170.983817 595.118527,165.073265 595.118527,162.540172 L595.118527,124.121586 C595.118527,121.588492 593.429798,116.100123 585.408335,116.100123 L518.703538,116.100123 C513.63735,116.100123 514.059533,111.8783 514.059533,108.500842 L514.059533,64.1717042 C514.059533,57.8389702 518.703538,57.416788 521.658813,57.416788 L601.873444,57.416788 C605.673084,57.416788 614.961094,56.9946057 614.961094,47.2844136 L614.961094,14.7763793 C614.961094,7.1770985 614.538912,0 600.184715,0 L466.352937,0 C451.99874,0 451.576557,7.1770985 451.576557,14.7763793 L451.576557,280.751206 Z M642.402941,280.751206 C642.402941,295.105403 649.580039,295.527585 657.17932,295.527585 L690.109537,295.527585 C697.708818,295.527585 704.885916,295.105403 704.885916,280.751206 L704.885916,178.160916 C704.885916,174.783457 704.463734,170.983817 710.374286,170.983817 L777.501266,170.983817 C785.944911,170.983817 785.944911,165.073265 785.944911,162.540172 L785.944911,124.121586 C785.944911,121.588492 784.256182,116.100123 776.234719,116.100123 L709.529921,116.100123 C704.463734,116.100123 704.885916,111.8783 704.885916,108.500842 L704.885916,64.1717042 C704.885916,57.8389702 709.529921,57.416788 712.485197,57.416788 L792.699827,57.416788 C796.499468,57.416788 805.787477,56.9946057 805.787477,47.2844136 L805.787477,14.7763793 C805.787477,7.1770985 805.365295,0 791.011098,0 L657.17932,0 C642.825123,0 642.402941,7.1770985 642.402941,14.7763793 L642.402941,280.751206 Z M877.558462,219.95696 C885.157743,219.95696 886.002108,213.624226 886.846472,208.980221 L897.823211,145.230699 C898.245393,141.853241 899.934122,130.032137 899.934122,123.277221 L899.934122,14.7763793 C899.934122,7.1770985 899.51194,0 885.157743,0 L852.227526,0 C837.873329,0 837.451147,7.1770985 837.451147,14.7763793 L837.451147,123.277221 C837.451147,130.032137 839.139876,141.853241 839.562058,145.230699 L850.538797,208.980221 C851.383162,213.624226 852.227526,219.95696 859.826807,219.95696 L877.558462,219.95696 Z M899.934122,246.13226 C899.934122,240.643891 899.089758,234.311157 888.113019,234.311157 L849.272251,234.311157 C843.783881,234.311157 837.451147,235.155521 837.451147,246.13226 L837.451147,283.706482 C837.451147,289.194851 838.295512,295.527585 849.272251,295.527585 L888.113019,295.527585 C893.601388,295.527585 899.934122,294.683221 899.934122,283.706482 L899.934122,246.13226 Z" id="PUFF!" sketch:type="MSShapeGroup"></path>
                <path d="M17.671393,367.13137 L15.6925651,358.985963 L5.66036806,358.985963 L3.5895017,367.13137 L0.322134768,367.13137 L8.60560023,334.54974 L12.9774292,334.54974 L21.0307984,367.13137 L17.671393,367.13137 Z M10.8145243,337.448952 L10.6304473,337.448952 L6.12056059,356.408884 L15.2323726,356.408884 L10.8145243,337.448952 Z M60.9288657,337.448952 L60.9288657,349.091823 L70.0866969,349.091823 L70.0866969,351.898998 L60.9288657,351.898998 L60.9288657,367.13137 L57.7535372,367.13137 L57.7535372,334.54974 L70.7769857,334.54974 L70.7769857,337.448952 L60.9288657,337.448952 Z M108.627509,350.794536 C108.627509,353.340947 108.382075,355.664896 107.891201,357.766452 C107.400326,359.868009 106.694705,361.670412 105.774315,363.173715 C104.853925,364.677018 103.734135,365.842827 102.414909,366.671178 C101.095684,367.499528 99.5924037,367.913698 97.9050227,367.913698 C96.2176417,367.913698 94.7066913,367.499528 93.3721263,366.671178 C92.0375613,365.842827 90.9024311,364.677018 89.9667016,363.173715 C89.0309722,361.670412 88.3176809,359.868009 87.8268064,357.766452 C87.3359319,355.664896 87.0904984,353.340947 87.0904984,350.794536 C87.0904984,348.278804 87.3282621,345.970195 87.8037968,343.868638 C88.2793314,341.767082 88.9772831,339.972349 89.8976728,338.484386 C90.8180624,336.996422 91.9455228,335.838283 93.2800878,335.009932 C94.6146528,334.181581 96.1562824,333.767412 97.9050227,333.767412 C99.5924037,333.767412 101.095684,334.181581 102.414909,335.009932 C103.734135,335.838283 104.853925,336.996422 105.774315,338.484386 C106.694705,339.972349 107.400326,341.767082 107.891201,343.868638 C108.382075,345.970195 108.627509,348.278804 108.627509,350.794536 L108.627509,350.794536 Z M105.268103,350.794536 C105.268103,348.831038 105.114707,346.990286 104.807911,345.272225 C104.501114,343.554165 104.033256,342.066224 103.404323,340.808358 C102.77539,339.550492 102.000741,338.553418 101.080351,337.817106 C100.159961,337.080795 99.1015293,336.712644 97.9050227,336.712644 C96.6471569,336.712644 95.5503756,337.080795 94.6146462,337.817106 C93.6789167,338.553418 92.904267,339.550492 92.2906739,340.808358 C91.6770808,342.066224 91.2168929,343.554165 90.9100963,345.272225 C90.6032998,346.990286 90.4499038,348.831038 90.4499038,350.794536 C90.4499038,352.758034 90.6032998,354.598785 90.9100963,356.316846 C91.2168929,358.034907 91.6770808,359.538187 92.2906739,360.826733 C92.904267,362.115278 93.6789167,363.127692 94.6146462,363.864003 C95.5503756,364.600315 96.6471569,364.968465 97.9050227,364.968465 C99.1322089,364.968465 100.205981,364.600315 101.12637,363.864003 C102.04676,363.127692 102.81374,362.115278 103.427333,360.826733 C104.040926,359.538187 104.501114,358.034907 104.807911,356.316846 C105.114707,354.598785 105.268103,352.758034 105.268103,350.794536 L105.268103,350.794536 Z M145.419589,355.718596 C145.419589,357.405977 145.258523,358.993625 144.936386,360.481588 C144.61425,361.969552 144.092704,363.265748 143.371732,364.370215 C142.65076,365.474683 141.692035,366.34137 140.495529,366.970303 C139.299022,367.599236 137.826421,367.913698 136.07768,367.913698 C134.32894,367.913698 132.864008,367.599236 131.682842,366.970303 C130.501675,366.34137 129.55062,365.474683 128.829648,364.370215 C128.108676,363.265748 127.5948,361.969552 127.288003,360.481588 C126.981207,358.993625 126.827811,357.405977 126.827811,355.718596 L126.827811,334.54974 L130.049158,334.54974 L130.049158,355.304422 C130.049158,356.500929 130.133526,357.682078 130.302264,358.847905 C130.471002,360.013732 130.777794,361.049155 131.222649,361.954204 C131.667504,362.859254 132.281088,363.587885 133.063419,364.140119 C133.845751,364.692353 134.865834,364.968465 136.1237,364.968465 C137.350886,364.968465 138.363299,364.692353 139.16097,364.140119 C139.958641,363.587885 140.579895,362.859254 141.02475,361.954204 C141.469605,361.049155 141.776397,360.021402 141.945135,358.870914 C142.113873,357.720427 142.198241,356.531609 142.198241,355.304422 L142.198241,334.54974 L145.419589,334.54974 L145.419589,355.718596 Z M178.254013,367.13137 L172.363549,352.037055 L168.175797,352.037055 L168.175797,367.13137 L165.000468,367.13137 L165.000468,334.54974 L172.823741,334.54974 C173.897529,334.54974 174.932952,334.695466 175.930041,334.986922 C176.927129,335.278379 177.816826,335.761576 178.599157,336.436529 C179.381489,337.111481 180.010412,338.001178 180.485947,339.105646 C180.961481,340.210113 181.199245,341.559998 181.199245,343.15534 C181.199245,344.535924 181.02284,345.724743 180.670024,346.721832 C180.317208,347.718921 179.85702,348.554929 179.289446,349.229881 C178.721873,349.904833 178.092949,350.42638 177.402657,350.794536 C176.712365,351.162692 176.029752,351.392785 175.3548,351.484824 L181.705457,367.13137 L178.254013,367.13137 Z M178.069936,343.293398 C178.069936,342.127571 177.90887,341.153506 177.586734,340.371175 C177.264597,339.588844 176.835089,338.96759 176.298195,338.507395 C175.761301,338.0472 175.147717,337.725069 174.457425,337.540991 C173.767132,337.356913 173.053841,337.264875 172.317529,337.264875 L168.175797,337.264875 L168.175797,349.505997 L172.455587,349.505997 C174.204327,349.505997 175.577221,348.961441 176.57431,347.872313 C177.571399,346.783185 178.069936,345.256895 178.069936,343.293398 L178.069936,343.293398 Z M213.527458,358.801886 C213.527458,360.243829 213.312703,361.524686 212.883188,362.644493 C212.453673,363.764301 211.863098,364.715356 211.111447,365.497687 C210.359795,366.280018 209.477768,366.878262 208.46534,367.292438 C207.452911,367.706613 206.379139,367.913698 205.243992,367.913698 C203.587291,367.913698 202.061001,367.560887 200.665077,366.855255 C199.269152,366.149623 198.141692,365.213907 197.282662,364.04808 L199.261489,361.793137 C199.967121,362.805566 200.856818,363.587885 201.930606,364.140119 C203.004394,364.692353 204.093505,364.968465 205.197973,364.968465 C206.670596,364.968465 207.905434,364.446919 208.902523,363.403811 C209.899612,362.360703 210.398148,360.872762 210.398148,358.939943 C210.398148,358.019554 210.244753,357.206555 209.937956,356.500923 C209.631159,355.795291 209.21699,355.166367 208.695436,354.614134 C208.173882,354.0619 207.583308,353.571033 206.923695,353.141518 C206.264082,352.712002 205.566131,352.313173 204.829819,351.945017 C203.940109,351.515502 203.096431,351.032304 202.29876,350.495411 C201.501089,349.958517 200.803137,349.337263 200.204884,348.631631 C199.606631,347.925999 199.123433,347.089991 198.755278,346.123582 C198.387122,345.157172 198.203047,344.029712 198.203047,342.741166 C198.203047,341.237863 198.433141,339.926328 198.893335,338.80652 C199.35353,337.686713 199.974784,336.750998 200.757115,335.999346 C201.539446,335.247694 202.421473,334.687799 203.403222,334.319643 C204.384971,333.951487 205.412724,333.767412 206.486512,333.767412 C207.959135,333.767412 209.286011,334.020516 210.467177,334.52673 C211.648344,335.032944 212.637748,335.822933 213.435419,336.896721 L211.456591,339.151665 C210.842998,338.261955 210.122037,337.625361 209.293686,337.241866 C208.465336,336.85837 207.560299,336.666625 206.578551,336.666625 C205.934278,336.666625 205.297684,336.781672 204.668752,337.01177 C204.039819,337.241867 203.479923,337.602347 202.989049,338.093222 C202.498174,338.584096 202.099345,339.21302 201.792548,339.980011 C201.485752,340.747003 201.332356,341.652039 201.332356,342.695147 C201.332356,343.615537 201.470412,344.413196 201.746529,345.088148 C202.022646,345.763101 202.398466,346.361345 202.874001,346.882899 C203.349535,347.404453 203.901761,347.864641 204.530694,348.263477 C205.159627,348.662312 205.81156,349.030463 206.486512,349.367939 C207.345542,349.797454 208.19689,350.288321 209.040581,350.840555 C209.884271,351.392789 210.643581,352.037052 211.318534,352.773364 C211.993486,353.509675 212.530372,354.368693 212.929207,355.350442 C213.328043,356.332191 213.527458,357.48266 213.527458,358.801886 L213.527458,358.801886 Z M241.253745,367.13137 C239.658403,367.13137 238.201141,366.74788 236.881916,365.980889 C235.562691,365.213898 234.427561,364.109447 233.476491,362.667503 C232.525422,361.225559 231.789121,359.484515 231.267567,357.444318 C230.746013,355.404121 230.48524,353.110851 230.48524,350.564439 C230.48524,348.079387 230.746013,345.801457 231.267567,343.73058 C231.789121,341.659704 232.525422,339.88798 233.476491,338.415357 C234.427561,336.942733 235.570361,335.799933 236.904926,334.986922 C238.239491,334.173912 239.719762,333.767412 241.345783,333.767412 C242.971805,333.767412 244.452076,334.181581 245.786641,335.009932 C247.121206,335.838283 248.256337,336.988753 249.192066,338.461376 C250.127796,339.933999 250.856426,341.698053 251.377981,343.75359 C251.899535,345.809127 252.160308,348.048708 252.160308,350.472401 C252.160308,352.006384 252.022251,353.509664 251.746135,354.982288 C251.470018,356.454911 251.086528,357.804796 250.595653,359.031982 C250.104779,360.259168 249.514204,361.32527 248.823912,362.23032 C248.13362,363.13537 247.389649,363.802642 246.591978,364.232157 L246.591978,364.324196 L253.218751,364.324196 L253.218751,367.13137 L241.253745,367.13137 Z M248.800902,350.564439 C248.800902,348.662301 248.632167,346.875238 248.294691,345.203196 C247.957214,343.531155 247.466347,342.073894 246.822075,340.831367 C246.177802,339.588841 245.395482,338.614777 244.475093,337.909145 C243.554703,337.203513 242.51161,336.850702 241.345783,336.850702 C240.179957,336.850702 239.129194,337.203513 238.193465,337.909145 C237.257735,338.614777 236.467746,339.581172 235.823473,340.808358 C235.1792,342.035544 234.688333,343.485136 234.350857,345.157177 C234.013381,346.829218 233.844645,348.631621 233.844645,350.564439 C233.844645,352.466578 234.021051,354.245971 234.373867,355.902673 C234.726683,357.559374 235.22522,359.001296 235.869492,360.228482 C236.513765,361.455669 237.303754,362.422063 238.239484,363.127695 C239.175213,363.833327 240.225976,364.186138 241.391803,364.186138 C242.588309,364.186138 243.646741,363.810318 244.567131,363.058666 C245.487521,362.307015 246.26217,361.302271 246.891103,360.044405 C247.520036,358.78654 247.995564,357.336948 248.3177,355.695586 C248.639837,354.054225 248.800902,352.343859 248.800902,350.564439 L248.800902,350.564439 Z M288.952388,355.718596 C288.952388,357.405977 288.791322,358.993625 288.469186,360.481588 C288.147049,361.969552 287.625503,363.265748 286.904531,364.370215 C286.183559,365.474683 285.224834,366.34137 284.028328,366.970303 C282.831821,367.599236 281.35922,367.913698 279.61048,367.913698 C277.861739,367.913698 276.396808,367.599236 275.215641,366.970303 C274.034474,366.34137 273.083419,365.474683 272.362447,364.370215 C271.641475,363.265748 271.127599,361.969552 270.820802,360.481588 C270.514006,358.993625 270.36061,357.405977 270.36061,355.718596 L270.36061,334.54974 L273.581958,334.54974 L273.581958,355.304422 C273.581958,356.500929 273.666325,357.682078 273.835063,358.847905 C274.003802,360.013732 274.310593,361.049155 274.755448,361.954204 C275.200303,362.859254 275.813887,363.587885 276.596219,364.140119 C277.37855,364.692353 278.398633,364.968465 279.656499,364.968465 C280.883685,364.968465 281.896098,364.692353 282.69377,364.140119 C283.491441,363.587885 284.112694,362.859254 284.557549,361.954204 C285.002404,361.049155 285.309196,360.021402 285.477934,358.870914 C285.646672,357.720427 285.73104,356.531609 285.73104,355.304422 L285.73104,334.54974 L288.952388,334.54974 L288.952388,355.718596 Z M321.92487,367.13137 L319.946042,358.985963 L309.913845,358.985963 L307.842979,367.13137 L304.575612,367.13137 L312.859077,334.54974 L317.230906,334.54974 L325.284275,367.13137 L321.92487,367.13137 Z M315.068001,337.448952 L314.883924,337.448952 L310.374038,356.408884 L319.48585,356.408884 L315.068001,337.448952 Z M355.081429,367.13137 L349.190965,352.037055 L345.003213,352.037055 L345.003213,367.13137 L341.827884,367.13137 L341.827884,334.54974 L349.651157,334.54974 C350.724945,334.54974 351.760368,334.695466 352.757457,334.986922 C353.754546,335.278379 354.644242,335.761576 355.426573,336.436529 C356.208905,337.111481 356.837828,338.001178 357.313363,339.105646 C357.788897,340.210113 358.026661,341.559998 358.026661,343.15534 C358.026661,344.535924 357.850256,345.724743 357.49744,346.721832 C357.144624,347.718921 356.684436,348.554929 356.116862,349.229881 C355.549289,349.904833 354.920365,350.42638 354.230073,350.794536 C353.539781,351.162692 352.857169,351.392785 352.182216,351.484824 L358.532873,367.13137 L355.081429,367.13137 Z M354.897352,343.293398 C354.897352,342.127571 354.736286,341.153506 354.41415,340.371175 C354.092014,339.588844 353.662505,338.96759 353.125611,338.507395 C352.588717,338.0472 351.975133,337.725069 351.284841,337.540991 C350.594548,337.356913 349.881257,337.264875 349.144945,337.264875 L345.003213,337.264875 L345.003213,349.505997 L349.283003,349.505997 C351.031744,349.505997 352.404638,348.961441 353.401726,347.872313 C354.398815,346.783185 354.897352,345.256895 354.897352,343.293398 L354.897352,343.293398 Z M376.226963,367.13137 L376.226963,334.54974 L389.34245,334.54974 L389.34245,337.402933 L379.356272,337.402933 L379.356272,348.861727 L388.698181,348.861727 L388.698181,351.576863 L379.356272,351.576863 L379.356272,364.232157 L389.802643,364.232157 L389.802643,367.13137 L376.226963,367.13137 Z M432.13973,337.448952 L432.13973,349.091823 L441.297562,349.091823 L441.297562,351.898998 L432.13973,351.898998 L432.13973,367.13137 L428.964402,367.13137 L428.964402,334.54974 L441.98785,334.54974 L441.98785,337.448952 L432.13973,337.448952 Z M479.838373,350.794536 C479.838373,353.340947 479.59294,355.664896 479.102065,357.766452 C478.611191,359.868009 477.905569,361.670412 476.98518,363.173715 C476.06479,364.677018 474.944999,365.842827 473.625774,366.671178 C472.306549,367.499528 470.803268,367.913698 469.115887,367.913698 C467.428506,367.913698 465.917556,367.499528 464.582991,366.671178 C463.248426,365.842827 462.113296,364.677018 461.177566,363.173715 C460.241837,361.670412 459.528546,359.868009 459.037671,357.766452 C458.546797,355.664896 458.301363,353.340947 458.301363,350.794536 C458.301363,348.278804 458.539127,345.970195 459.014661,343.868638 C459.490196,341.767082 460.188148,339.972349 461.108537,338.484386 C462.028927,336.996422 463.156388,335.838283 464.490953,335.009932 C465.825518,334.181581 467.367147,333.767412 469.115887,333.767412 C470.803268,333.767412 472.306549,334.181581 473.625774,335.009932 C474.944999,335.838283 476.06479,336.996422 476.98518,338.484386 C477.905569,339.972349 478.611191,341.767082 479.102065,343.868638 C479.59294,345.970195 479.838373,348.278804 479.838373,350.794536 L479.838373,350.794536 Z M476.478968,350.794536 C476.478968,348.831038 476.325572,346.990286 476.018775,345.272225 C475.711979,343.554165 475.244121,342.066224 474.615188,340.808358 C473.986255,339.550492 473.211605,338.553418 472.291216,337.817106 C471.370826,337.080795 470.312394,336.712644 469.115887,336.712644 C467.858022,336.712644 466.76124,337.080795 465.825511,337.817106 C464.889781,338.553418 464.115132,339.550492 463.501539,340.808358 C462.887946,342.066224 462.427758,343.554165 462.120961,345.272225 C461.814164,346.990286 461.660769,348.831038 461.660769,350.794536 C461.660769,352.758034 461.814164,354.598785 462.120961,356.316846 C462.427758,358.034907 462.887946,359.538187 463.501539,360.826733 C464.115132,362.115278 464.889781,363.127692 465.825511,363.864003 C466.76124,364.600315 467.858022,364.968465 469.115887,364.968465 C470.343074,364.968465 471.416845,364.600315 472.337235,363.864003 C473.257625,363.127692 474.024605,362.115278 474.638198,360.826733 C475.251791,359.538187 475.711979,358.034907 476.018775,356.316846 C476.325572,354.598785 476.478968,352.758034 476.478968,350.794536 L476.478968,350.794536 Z M511.660374,367.13137 L505.76991,352.037055 L501.582158,352.037055 L501.582158,367.13137 L498.406829,367.13137 L498.406829,334.54974 L506.230102,334.54974 C507.30389,334.54974 508.339313,334.695466 509.336402,334.986922 C510.333491,335.278379 511.223187,335.761576 512.005518,336.436529 C512.78785,337.111481 513.416773,338.001178 513.892308,339.105646 C514.367842,340.210113 514.605606,341.559998 514.605606,343.15534 C514.605606,344.535924 514.429201,345.724743 514.076385,346.721832 C513.723569,347.718921 513.263381,348.554929 512.695807,349.229881 C512.128234,349.904833 511.49931,350.42638 510.809018,350.794536 C510.118726,351.162692 509.436114,351.392785 508.761161,351.484824 L515.111818,367.13137 L511.660374,367.13137 Z M511.476297,343.293398 C511.476297,342.127571 511.315231,341.153506 510.993095,340.371175 C510.670958,339.588844 510.24145,338.96759 509.704556,338.507395 C509.167662,338.0472 508.554078,337.725069 507.863786,337.540991 C507.173493,337.356913 506.460202,337.264875 505.72389,337.264875 L501.582158,337.264875 L501.582158,349.505997 L505.861948,349.505997 C507.610689,349.505997 508.983583,348.961441 509.980671,347.872313 C510.97776,346.783185 511.476297,345.256895 511.476297,343.293398 L511.476297,343.293398 Z M575.902626,367.13137 L571.668855,367.13137 L566.330621,339.243703 L566.238583,339.243703 L560.946369,367.13137 L556.712598,367.13137 L550.315921,334.54974 L553.583288,334.54974 L558.921522,363.035657 L559.01356,363.035657 L564.443832,334.54974 L568.309449,334.54974 L573.83176,363.035657 L573.923798,363.035657 L579.216012,334.54974 L582.345321,334.54974 L575.902626,367.13137 Z M599.257084,367.13137 L599.257084,334.54974 L612.372571,334.54974 L612.372571,337.402933 L602.386393,337.402933 L602.386393,348.861727 L611.728302,348.861727 L611.728302,351.576863 L602.386393,351.576863 L602.386393,364.232157 L612.832764,364.232157 L612.832764,367.13137 L599.257084,367.13137 Z M630.987046,367.13137 L630.987046,334.54974 L644.102533,334.54974 L644.102533,337.402933 L634.116356,337.402933 L634.116356,348.861727 L643.458264,348.861727 L643.458264,351.576863 L634.116356,351.576863 L634.116356,364.232157 L644.562726,364.232157 L644.562726,367.13137 L630.987046,367.13137 Z M681.538883,350.886574 C681.538883,353.555704 681.26277,355.902663 680.710536,357.92752 C680.158303,359.952377 679.360644,361.647403 678.317535,363.012647 C677.274427,364.377892 676.02425,365.405645 674.566966,366.095937 C673.109683,366.786229 671.491355,367.13137 669.711935,367.13137 L662.717009,367.13137 L662.717009,334.54974 L669.757954,334.54974 C671.537374,334.54974 673.155702,334.89488 674.612986,335.585173 C676.070269,336.275465 677.312777,337.310888 678.340545,338.691472 C679.368313,340.072057 680.158303,341.782422 680.710536,343.822619 C681.26277,345.862816 681.538883,348.217444 681.538883,350.886574 L681.538883,350.886574 Z M678.363555,350.886574 C678.363555,348.5856 678.14113,346.583783 677.696275,344.881062 C677.25142,343.178341 676.637837,341.774768 675.855505,340.6703 C675.073174,339.565833 674.152798,338.737494 673.09435,338.18526 C672.035902,337.633027 670.893102,337.356914 669.665916,337.356914 L665.892337,337.356914 L665.892337,364.324196 L669.665916,364.324196 C670.893102,364.324196 672.035902,364.048083 673.09435,363.495849 C674.152798,362.943616 675.073174,362.115277 675.855505,361.01081 C676.637837,359.906342 677.25142,358.510439 677.696275,356.823058 C678.14113,355.135677 678.363555,353.156869 678.363555,350.886574 L678.363555,350.886574 Z M721.114815,367.13137 L721.114815,334.54974 L724.336163,334.54974 L724.336163,364.140119 L733.632052,364.140119 L733.632052,367.13137 L721.114815,367.13137 Z M768.813458,350.794536 C768.813458,353.340947 768.568025,355.664896 768.07715,357.766452 C767.586276,359.868009 766.880654,361.670412 765.960265,363.173715 C765.039875,364.677018 763.920084,365.842827 762.600859,366.671178 C761.281634,367.499528 759.778354,367.913698 758.090973,367.913698 C756.403592,367.913698 754.892641,367.499528 753.558076,366.671178 C752.223511,365.842827 751.088381,364.677018 750.152651,363.173715 C749.216922,361.670412 748.503631,359.868009 748.012756,357.766452 C747.521882,355.664896 747.276448,353.340947 747.276448,350.794536 C747.276448,348.278804 747.514212,345.970195 747.989747,343.868638 C748.465281,341.767082 749.163233,339.972349 750.083623,338.484386 C751.004012,336.996422 752.131473,335.838283 753.466038,335.009932 C754.800603,334.181581 756.342232,333.767412 758.090973,333.767412 C759.778354,333.767412 761.281634,334.181581 762.600859,335.009932 C763.920084,335.838283 765.039875,336.996422 765.960265,338.484386 C766.880654,339.972349 767.586276,341.767082 768.07715,343.868638 C768.568025,345.970195 768.813458,348.278804 768.813458,350.794536 L768.813458,350.794536 Z M765.454053,350.794536 C765.454053,348.831038 765.300657,346.990286 764.99386,345.272225 C764.687064,343.554165 764.219206,342.066224 763.590273,340.808358 C762.96134,339.550492 762.186691,338.553418 761.266301,337.817106 C760.345911,337.080795 759.287479,336.712644 758.090973,336.712644 C756.833107,336.712644 755.736325,337.080795 754.800596,337.817106 C753.864867,338.553418 753.090217,339.550492 752.476624,340.808358 C751.863031,342.066224 751.402843,343.554165 751.096046,345.272225 C750.78925,346.990286 750.635854,348.831038 750.635854,350.794536 C750.635854,352.758034 750.78925,354.598785 751.096046,356.316846 C751.402843,358.034907 751.863031,359.538187 752.476624,360.826733 C753.090217,362.115278 753.864867,363.127692 754.800596,363.864003 C755.736325,364.600315 756.833107,364.968465 758.090973,364.968465 C759.318159,364.968465 760.391931,364.600315 761.31232,363.864003 C762.23271,363.127692 762.99969,362.115278 763.613283,360.826733 C764.226876,359.538187 764.687064,358.034907 764.99386,356.316846 C765.300657,354.598785 765.454053,352.758034 765.454053,350.794536 L765.454053,350.794536 Z M795.895476,367.13137 L791.707724,367.13137 L783.654355,334.54974 L787.151818,334.54974 L793.870629,363.495849 L793.962668,363.495849 L800.681478,334.54974 L804.086903,334.54974 L795.895476,367.13137 Z M820.584493,367.13137 L820.584493,334.54974 L833.69998,334.54974 L833.69998,337.402933 L823.713802,337.402933 L823.713802,348.861727 L833.05571,348.861727 L833.05571,351.576863 L823.713802,351.576863 L823.713802,364.232157 L834.160172,364.232157 L834.160172,367.13137 L820.584493,367.13137 Z M865.568,367.13137 L859.677535,352.037055 L855.489783,352.037055 L855.489783,367.13137 L852.314455,367.13137 L852.314455,334.54974 L860.137728,334.54974 C861.211516,334.54974 862.246939,334.695466 863.244028,334.986922 C864.241116,335.278379 865.130813,335.761576 865.913144,336.436529 C866.695475,337.111481 867.324399,338.001178 867.799934,339.105646 C868.275468,340.210113 868.513232,341.559998 868.513232,343.15534 C868.513232,344.535924 868.336827,345.724743 867.984011,346.721832 C867.631195,347.718921 867.171007,348.554929 866.603433,349.229881 C866.035859,349.904833 865.406936,350.42638 864.716644,350.794536 C864.026351,351.162692 863.343739,351.392785 862.668787,351.484824 L869.019444,367.13137 L865.568,367.13137 Z M865.383923,343.293398 C865.383923,342.127571 865.222857,341.153506 864.900721,340.371175 C864.578584,339.588844 864.149076,338.96759 863.612182,338.507395 C863.075288,338.0472 862.461704,337.725069 861.771411,337.540991 C861.081119,337.356913 860.367828,337.264875 859.631516,337.264875 L855.489783,337.264875 L855.489783,349.505997 L859.769574,349.505997 C861.518314,349.505997 862.891208,348.961441 863.888297,347.872313 C864.885386,346.783185 865.383923,345.256895 865.383923,343.293398 L865.383923,343.293398 Z M900.841445,358.801886 C900.841445,360.243829 900.62669,361.524686 900.197175,362.644493 C899.76766,363.764301 899.177085,364.715356 898.425434,365.497687 C897.673782,366.280018 896.791755,366.878262 895.779327,367.292438 C894.766898,367.706613 893.693126,367.913698 892.557979,367.913698 C890.901278,367.913698 889.374988,367.560887 887.979063,366.855255 C886.583139,366.149623 885.455679,365.213907 884.596648,364.04808 L886.575476,361.793137 C887.281108,362.805566 888.170805,363.587885 889.244593,364.140119 C890.318381,364.692353 891.407492,364.968465 892.51196,364.968465 C893.984583,364.968465 895.219421,364.446919 896.21651,363.403811 C897.213598,362.360703 897.712135,360.872762 897.712135,358.939943 C897.712135,358.019554 897.558739,357.206555 897.251943,356.500923 C896.945146,355.795291 896.530977,355.166367 896.009423,354.614134 C895.487869,354.0619 894.897294,353.571033 894.237682,353.141518 C893.578069,352.712002 892.880117,352.313173 892.143806,351.945017 C891.254096,351.515502 890.410418,351.032304 889.612747,350.495411 C888.815076,349.958517 888.117124,349.337263 887.518871,348.631631 C886.920618,347.925999 886.43742,347.089991 886.069264,346.123582 C885.701109,345.157172 885.517033,344.029712 885.517033,342.741166 C885.517033,341.237863 885.747127,339.926328 886.207322,338.80652 C886.667517,337.686713 887.288771,336.750998 888.071102,335.999346 C888.853433,335.247694 889.73546,334.687799 890.717209,334.319643 C891.698958,333.951487 892.726711,333.767412 893.800499,333.767412 C895.273122,333.767412 896.599997,334.020516 897.781164,334.52673 C898.962331,335.032944 899.951735,335.822933 900.749406,336.896721 L898.770578,339.151665 C898.156985,338.261955 897.436024,337.625361 896.607673,337.241866 C895.779323,336.85837 894.874286,336.666625 893.892537,336.666625 C893.248265,336.666625 892.611671,336.781672 891.982738,337.01177 C891.353805,337.241867 890.79391,337.602347 890.303036,338.093222 C889.812161,338.584096 889.413332,339.21302 889.106535,339.980011 C888.799739,340.747003 888.646343,341.652039 888.646343,342.695147 C888.646343,343.615537 888.784399,344.413196 889.060516,345.088148 C889.336633,345.763101 889.712453,346.361345 890.187988,346.882899 C890.663522,347.404453 891.215748,347.864641 891.844681,348.263477 C892.473614,348.662312 893.125546,349.030463 893.800499,349.367939 C894.659529,349.797454 895.510877,350.288321 896.354567,350.840555 C897.198258,351.392789 897.957568,352.037052 898.63252,352.773364 C899.307473,353.509675 899.844359,354.368693 900.243194,355.350442 C900.64203,356.332191 900.841445,357.48266 900.841445,358.801886 L900.841445,358.801886 Z" id="A-FOURSQUARE-FOR-WEE-Copy" sketch:type="MSShapeGroup"></path>
            </g>
        </g>
    </g>
</svg>