<?xml version="1.0" encoding="UTF-8" standalone="no"?>
<svg viewBox="0 0 898 299" version="1.1" xmlns="http://www.w3.org/2000/svg" xmlns:xlink="http://www.w3.org/1999/xlink" xmlns:sketch="http://www.bohemiancoding.com/sketch/ns">
    <!-- Generator: Sketch 3.3.2 (12043) - http://www.bohemiancoding.com/sketch -->
    <title>logo</title>
    <desc>Created with Sketch.</desc>
    <defs></defs>
    <g id="Page-1" stroke="none" stroke-width="1" fill="none" fill-rule="evenodd" sketch:type="MSPage">
        <g id="logo" sketch:type="MSLayerGroup" fill="#000000">
            <g id="Group" sketch:type="MSShapeGroup">
                <g id="PUFF!">
                    <g>
                        <path d="M15.1510074,0 C0.79681036,0 0.3746281,7.1770985 0.3746281,14.7763793 L0.3746281,280.751206 C0.3746281,295.105403 7.55172659,295.527585 15.1510074,295.527585 L48.081224,295.527585 C55.6805047,295.527585 62.8576032,295.105403 62.8576032,280.751206 L62.8576032,182.804921 C62.8576032,179.849645 65.3906968,176.472187 69.1903372,176.472187 L96.2100021,176.472187 C108.453288,176.472187 197.955928,176.472187 197.955928,90.3470046 C197.955928,59.5276993 188.245736,0 91.9881795,0 L15.1510074,0 L15.1510074,0 Z M67.5016081,121.588492 C64.5463323,121.588492 62.8576032,119.477581 62.8576032,117.36667 L62.8576032,59.5276993 C62.8576032,55.7280589 65.3906968,54.0393298 68.3459727,54.0393298 L91.5659972,54.0393298 C121.118756,54.0393298 130.406766,70.9266204 130.406766,87.3917287 C130.406766,108.07866 113.097293,121.588492 91.9881795,121.588492 L67.5016081,121.588492 L67.5016081,121.588492 Z M227.508686,201.803122 C227.508686,234.733339 235.107967,298.905043 319.54442,298.905043 C403.980873,298.905043 411.580154,234.733339 411.580154,201.803122 L411.580154,14.7763793 C411.580154,7.1770985 411.157971,0 396.803774,0 L363.873558,0 C349.519361,0 349.097179,7.1770985 349.097179,14.7763793 L349.097179,201.38094 C349.097179,211.935497 349.941543,241.488255 319.54442,241.488255 C289.147297,241.488255 289.991662,211.935497 289.991662,201.38094 L289.991662,14.7763793 C289.991662,7.1770985 289.569479,0 275.215282,0 L242.285066,0 C227.930869,0 227.508686,7.1770985 227.508686,14.7763793 L227.508686,201.803122 L227.508686,201.803122 Z M449.576557,280.751206 C449.576557,295.105403 456.753656,295.527585 464.352937,295.527585 L497.283153,295.527585 C504.882434,295.527585 512.059533,295.105403 512.059533,280.751206 L512.059533,178.160916 C512.059533,174.783457 511.63735,170.983817 517.547902,170.983817 L584.674882,170.983817 C593.118527,170.983817 593.118527,165.073265 593.118527,162.540172 L593.118527,124.121586 C593.118527,121.588492 591.429798,116.100123 583.408335,116.100123 L516.703538,116.100123 C511.63735,116.100123 512.059533,111.8783 512.059533,108.500842 L512.059533,64.1717042 C512.059533,57.8389702 516.703538,57.416788 519.658813,57.416788 L599.873444,57.416788 C603.673084,57.416788 612.961094,56.9946057 612.961094,47.2844136 L612.961094,14.7763793 C612.961094,7.1770985 612.538912,0 598.184715,0 L464.352937,0 C449.99874,0 449.576557,7.1770985 449.576557,14.7763793 L449.576557,280.751206 L449.576557,280.751206 Z M640.402941,280.751206 C640.402941,295.105403 647.580039,295.527585 655.17932,295.527585 L688.109537,295.527585 C695.708818,295.527585 702.885916,295.105403 702.885916,280.751206 L702.885916,178.160916 C702.885916,174.783457 702.463734,170.983817 708.374286,170.983817 L775.501266,170.983817 C783.944911,170.983817 783.944911,165.073265 783.944911,162.540172 L783.944911,124.121586 C783.944911,121.588492 782.256182,116.100123 774.234719,116.100123 L707.529921,116.100123 C702.463734,116.100123 702.885916,111.8783 702.885916,108.500842 L702.885916,64.1717042 C702.885916,57.8389702 707.529921,57.416788 710.485197,57.416788 L790.699827,57.416788 C794.499468,57.416788 803.787477,56.9946057 803.787477,47.2844136 L803.787477,14.7763793 C803.787477,7.1770985 803.365295,0 789.011098,0 L655.17932,0 C640.825123,0 640.402941,7.1770985 640.402941,14.7763793 L640.402941,280.751206 L640.402941,280.751206 Z M875.558462,219.95696 C883.157743,219.95696 884.002108,213.624226 884.846472,208.980221 L895.823211,145.230699 C896.245393,141.853241 897.934122,130.032137 897.934122,123.277221 L897.934122,14.7763793 C897.934122,7.1770985 897.51194,0 883.157743,0 L850.227526,0 C835.873329,0 835.451147,7.1770985 835.451147,14.7763793 L835.451147,123.277221 C835.451147,130.032137 837.139876,141.853241 837.562058,145.230699 L848.538797,208.980221 C849.383162,213.624226 850.227526,219.95696 857.826807,219.95696 L875.558462,219.95696 L875.558462,219.95696 Z M897.934122,246.13226 C897.934122,240.643891 897.089758,234.311157 886.113019,234.311157 L847.272251,234.311157 C841.783881,234.311157 835.451147,235.155521 835.451147,246.13226 L835.451147,283.706482 C835.451147,289.194851 836.295512,295.527585 847.272251,295.527585 L886.113019,295.527585 C891.601388,295.527585 897.934122,294.683221 897.934122,283.706482 L897.934122,246.13226 L897.934122,246.13226 Z"></path>
                    </g>
                </g>
            </g>
        </g>
    </g>
</svg>
